<svg width="120" height="120" viewBox="0 0 120 120" fill="none" xmlns="http://www.w3.org/2000/svg">
    <rect width="120" height="120" rx="20" fill="#4F46E5"/>
    <path d="M45.5 35C45.5 37.2091 43.7091 39 41.5 39C39.2909 39 37.5 37.2091 37.5 35C37.5 32.7909 39.2909 31 41.5 31C43.7091 31 45.5 32.7909 45.5 35Z" fill="white"/>
    <path d="M82.5 35C82.5 37.2091 80.7091 39 78.5 39C76.2909 39 74.5 37.2091 74.5 35C74.5 32.7909 76.2909 31 78.5 31C80.7091 31 82.5 32.7909 82.5 35Z" fill="white"/>
    <path fill-rule="evenodd" clip-rule="evenodd" d="M60 88C47.8497 88 38 78.1503 38 66C38 53.8497 47.8497 44 60 44C72.1503 44 82 53.8497 82 66C82 78.1503 72.1503 88 60 88ZM49 62C49 58.6863 51.6863 56 55 56C58.3137 56 61 58.6863 61 62C61 65.3137 58.3137 68 55 68C51.6863 68 49 65.3137 49 62ZM65 62C65 58.6863 67.6863 56 71 56C74.3137 56 77 58.6863 77 62C77 65.3137 74.3137 68 71 68C67.6863 68 65 65.3137 65 62Z" fill="white"/>
</svg>

