<svg width="48" height="48" viewBox="0 0 48 48" fill="none" xmlns="http://www.w3.org/2000/svg">
    <rect width="48" height="48" rx="8" fill="#4F46E5"/>
    <path d="M18.5 14C18.5 15.1046 17.6046 16 16.5 16C15.3954 16 14.5 15.1046 14.5 14C14.5 12.8954 15.3954 12 16.5 12C17.6046 12 18.5 12.8954 18.5 14Z" fill="white"/>
    <path d="M33.5 14C33.5 15.1046 32.6046 16 31.5 16C30.3954 16 29.5 15.1046 29.5 14C29.5 12.8954 30.3954 12 31.5 12C32.6046 12 33.5 12.8954 33.5 14Z" fill="white"/>
    <path fill-rule="evenodd" clip-rule="evenodd" d="M24 36C20.6863 36 18 33.3137 18 30C18 26.6863 20.6863 24 24 24C27.3137 24 30 26.6863 30 30C30 33.3137 27.3137 36 24 36ZM20 26C20 24.8954 20.8954 24 22 24C23.1046 24 24 24.8954 24 26C24 27.1046 23.1046 28 22 28C20.8954 28 20 27.1046 20 26ZM26 26C26 24.8954 26.8954 24 28 24C29.1046 24 30 24.8954 30 26C30 27.1046 29.1046 28 28 28C26.8954 28 26 27.1046 26 26Z" fill="white"/>
</svg>

